HIERARCHY
ROOT hip
{
  OFFSET 0 0 0
  CHANNELS 6 Xposition Yposition Zposition Zrotation Yrotation Xrotation
  JOINT abdomen
  {
    OFFSET 0 20.6881 -0.73152
    CHANNELS 3 Zrotation Xrotation Yrotation
    JOINT chest
    {
      OFFSET 0 11.7043 -0.48768
      CHANNELS 3 Zrotation Xrotation Yrotation
      JOINT neck
      {
        OFFSET 0 22.1894 -2.19456
        CHANNELS 3 Zrotation Xrotation Yrotation
        JOINT head
        {
          OFFSET -0.24384 7.07133 1.2192
          CHANNELS 3 Zrotation Xrotation Yrotation
          JOINT leftEye
          {
            OFFSET 4.14528 8.04674 8.04672
            CHANNELS 3 Zrotation Xrotation Yrotation
            End Site
            {
              OFFSET 1 0 0
            }
          }
          JOINT rightEye
          {
            OFFSET -3.6576 8.04674 8.04672
            CHANNELS 3 Zrotation Xrotation Yrotation
            End Site
            {
              OFFSET 1 0 0
            }
          }
        }
      }
      JOINT rCollar
      {
        OFFSET -2.68224 19.2634 -4.8768
        CHANNELS 3 Zrotation Xrotation Yrotation
        JOINT rShldr
        {
          OFFSET -8.77824 -1.95073 1.46304
          CHANNELS 3 Zrotation Xrotation Yrotation
          JOINT rForeArm
          {
            OFFSET -28.1742 -1.7115 0.48768
            CHANNELS 3 Zrotation Xrotation Yrotation
            JOINT rHand
            {
              OFFSET -22.5879 0.773209 7.07136
              CHANNELS 3 Zrotation Xrotation Yrotation
              JOINT rThumb1
              {
                OFFSET -1.2192 -0.487915 3.41376
                CHANNELS 3 Zrotation Xrotation Yrotation
                JOINT rThumb2
                {
                  OFFSET -3.37035 -0.52449 3.41376
                  CHANNELS 3 Zrotation Xrotation Yrotation
                  End Site
                  {
                    OFFSET -1.78271 -1.18214 1.43049
                  }
                }
              }
              JOINT rIndex1
              {
                OFFSET -7.75947 0.938293 5.60832
                CHANNELS 3 Zrotation Xrotation Yrotation
                JOINT rIndex2
                {
                  OFFSET -2.54057 -0.884171 1.56538
                  CHANNELS 3 Zrotation Xrotation Yrotation
                  End Site
                  {
                    OFFSET -1.62519 -0.234802 1.16502
                  }
                }
              }
              JOINT rMid1
              {
                OFFSET -8.24714 1.18213 3.41376
                CHANNELS 3 Zrotation Xrotation Yrotation
                JOINT rMid2
                {
                  OFFSET -3.10165 -0.590103 1.0647
                  CHANNELS 3 Zrotation Xrotation Yrotation
                  End Site
                  {
                    OFFSET -2.48547 -0.328903 0.83742
                  }
                }
              }
              JOINT rRing1
              {
                OFFSET -8.82822 0.546677 1.51678
                CHANNELS 3 Zrotation Xrotation Yrotation
                JOINT rRing2
                {
                  OFFSET -2.60934 -0.819778 -0.0198488
                  CHANNELS 3 Zrotation Xrotation Yrotation
                  End Site
                  {
                    OFFSET -2.33842 -0.294052 0.168128
                  }
                }
              }
              JOINT rPinky1
              {
                OFFSET -8.27202 -0.0477905 -0.4584
                CHANNELS 3 Zrotation Xrotation Yrotation
                JOINT rPinky2
                {
                  OFFSET -1.82734 -0.647385 -0.700984
                  CHANNELS 3 Zrotation Xrotation Yrotation
                  End Site
                  {
                    OFFSET -1.69225 -0.51767 -0.607171
                  }
                }
              }
            }
          }
        }
      }
      JOINT lCollar
      {
        OFFSET 2.68224 19.2634 -4.8768
        CHANNELS 3 Zrotation Xrotation Yrotation
        JOINT lShldr
        {
          OFFSET 8.77824 -1.95073 1.46304
          CHANNELS 3 Zrotation Xrotation Yrotation
          JOINT lForeArm
          {
            OFFSET 28.1742 -1.7115 0.48768
            CHANNELS 3 Zrotation Xrotation Yrotation
            JOINT lHand
            {
              OFFSET 22.5879 0.773209 7.07136
              CHANNELS 3 Zrotation Xrotation Yrotation
              JOINT lThumb1
              {
                OFFSET 1.2192 -0.487915 3.41376
                CHANNELS 3 Zrotation Xrotation Yrotation
                JOINT lThumb2
                {
                  OFFSET 3.37035 -0.52449 3.41376
                  CHANNELS 3 Zrotation Xrotation Yrotation
                  End Site
                  {
                    OFFSET 1.78271 -1.18214 1.43049
                  }
                }
              }
              JOINT lIndex1
              {
                OFFSET 7.75947 0.938293 5.60832
                CHANNELS 3 Zrotation Xrotation Yrotation
                JOINT lIndex2
                {
                  OFFSET 2.54057 -0.884171 1.56538
                  CHANNELS 3 Zrotation Xrotation Yrotation
                  End Site
                  {
                    OFFSET 1.62519 -0.234802 1.16502
                  }
                }
              }
              JOINT lMid1
              {
                OFFSET 8.24714 1.18213 3.41376
                CHANNELS 3 Zrotation Xrotation Yrotation
                JOINT lMid2
                {
                  OFFSET 3.10165 -0.590103 1.0647
                  CHANNELS 3 Zrotation Xrotation Yrotation
                  End Site
                  {
                    OFFSET 2.48547 -0.328903 0.83742
                  }
                }
              }
              JOINT lRing1
              {
                OFFSET 8.82822 0.546677 1.51678
                CHANNELS 3 Zrotation Xrotation Yrotation
                JOINT lRing2
                {
                  OFFSET 2.60934 -0.819778 -0.0198488
                  CHANNELS 3 Zrotation Xrotation Yrotation
                  End Site
                  {
                    OFFSET 2.33842 -0.294052 0.168128
                  }
                }
              }
              JOINT lPinky1
              {
                OFFSET 8.27202 -0.0477905 -0.4584
                CHANNELS 3 Zrotation Xrotation Yrotation
                JOINT lPinky2
                {
                  OFFSET 1.82734 -0.647385 -0.700984
                  CHANNELS 3 Zrotation Xrotation Yrotation
                  End Site
                  {
                    OFFSET 1.69225 -0.51767 -0.607171
                  }
                }
              }
            }
          }
        }
      }
    }
  }
  JOINT rButtock
  {
    OFFSET -8.77824 4.35084 1.2192
    CHANNELS 3 Zrotation Xrotation Yrotation
    JOINT rThigh
    {
      OFFSET 0 -1.70687 -2.19456
      CHANNELS 3 Zrotation Xrotation Yrotation
      JOINT rShin
      {
        OFFSET 0 -36.8199 0.73152
        CHANNELS 3 Zrotation Xrotation Yrotation
        JOINT rFoot
        {
          OFFSET 0.73152 -45.1104 -5.12064
          CHANNELS 3 Zrotation Xrotation Yrotation
          End Site
          {
            OFFSET -1.1221 -3.69964 12.103
          }
        }
      }
    }
  }
  JOINT lButtock
  {
    OFFSET 8.77824 4.35084 1.2192
    CHANNELS 3 Zrotation Xrotation Yrotation
    JOINT lThigh
    {
      OFFSET 0 -1.70687 -2.19456
      CHANNELS 3 Zrotation Xrotation Yrotation
      JOINT lShin
      {
        OFFSET 0 -36.8199 0.73152
        CHANNELS 3 Zrotation Xrotation Yrotation
        JOINT lFoot
        {
          OFFSET -0.73152 -45.1104 -5.12064
          CHANNELS 3 Zrotation Xrotation Yrotation
          End Site
          {
            OFFSET 1.1221 -3.69964 12.103
          }
        }
      }
    }
  }
}
MOTION
Frames:	4
Frame Time:	0.03333
0.1305828115643301 27.69626340514538 0.37265175938216355 -14.514100074768066 -29.06089973449707 21.279897689819336 7.0994791984558105 5.475460052490234 5.9928998947143555 3.578310251235962 -9.338689804077148 1.7969800233840942 0.12167402356863022 11.736800193786621 6.370569705963135 4.775879859924316 -28.61819839477539 13.987299919128418 -0.0 0.0 -0.0 -0.0 0.0 -0.0 2.3377076641649397e-13 2.7988879660115207e-13 -6.106664653116045e-13 108.0679931640625 47.057098388671875 -55.97659683227539 -27.512296676635742 -42.46330261230469 88.46199798583984 -9.707179069519043 -62.77809524536133 -15.850098609924316 2.673659960095165e-09 -4.69707961414656e-09 -6.773181460140165e-10 4.626259819673351e-09 -7.93495047446413e-09 -1.0388200299971118e-09 2.6736695080131767e-09 -4.69707961414656e-09 -6.773309135787997e-10 7.7309088706970215 5.474880218505859 0.41731396317481995 2.673659960095165e-09 -4.697088940019967e-09 -6.773149818783963e-10 2.9055399894714355 0.9651829600334167 0.10290198773145676 2.6736695080131767e-09 -4.69707961414656e-09 -6.773181460140165e-10 10.27859878540039 0.73180091381073 0.025912299752235413 2.673659960095165e-09 -4.69707961414656e-09 -6.773085980960047e-10 2.2216696739196777 -0.7334870100021362 -0.2089199721813202 2.3377076641649397e-13 2.7988879660115207e-13 -6.106664653116045e-13 -49.46660232543945 -19.86359977722168 -75.17478942871094 8.874109268188477 -3.4846701622009277 -15.706298828125 7.2451090812683105 58.044002532958984 -13.020098686218262 -3.218630473256212e-09 -1.0743800515911062e-08 4.350289461996226e-09 -5.325659024890683e-09 -2.0030698877349096e-08 7.631018483778007e-09 -3.218630473256212e-09 -1.0743800515911062e-08 4.35030855783225e-09 -7.7309088706970215 5.474880218505859 -0.41731396317481995 -3.218630473256212e-09 -1.0743800515911062e-08 4.350289461996226e-09 -2.9055399894714355 0.9651829600334167 -0.10290198773145676 -3.218640021174224e-09 -1.0743800515911062e-08 4.350298787869633e-09 -10.27859878540039 0.73180091381073 -0.025912299752235413 -3.218619371025966e-09 -1.0743800515911062e-08 4.350289461996226e-09 -2.2216696739196777 -0.7334870100021362 0.2089199721813202 -0.0 0.0 -0.0 -15.107996940612793 11.807700157165527 -0.2215309739112854 0.1585809290409088 22.629199981689453 2.3450398445129395 -6.259549617767334 -11.99269962310791 -34.592098236083984 -0.0 0.0 -0.0 97.96609497070312 -51.114593505859375 94.68089294433594 50.835994720458984 88.64692687988281 -51.28059768676758 4.812249660491943 -3.700660228729248 19.429901123046875
0.29189907315533753 27.841565434453646 0.8194442350290371 -14.062798500061035 -29.04949951171875 22.200197219848633 6.072679042816162 4.447090148925781 6.079979419708252 3.964829921722412 -9.120329856872559 1.818739891052246 0.10509299486875534 11.649599075317383 6.296719551086426 5.027188777923584 -29.041597366333008 13.940498352050781 -0.0 0.0 -0.0 -0.0 0.0 -0.0 3.0056239073116e-13 5.96353966642732e-13 -2.5126379926340703e-13 108.1929931640625 47.100093841552734 -55.87399673461914 -27.495397567749023 -42.52210235595703 88.57329559326172 -10.62819766998291 -64.17029571533203 -16.878198623657227 2.5346602594567003e-09 -4.00178956638797e-09 -4.3458778242744245e-10 4.3725707499220334e-09 -6.706809774215117e-09 -6.137134134220901e-10 2.534669807374712e-09 -4.001800668618216e-09 -4.34606878263466e-10 7.7309088706970215 5.474880218505859 0.41731396317481995 2.5346602594567003e-09 -4.001800668618216e-09 -4.3458778242744245e-10 2.9055399894714355 0.9651829600334167 0.10290198773145676 2.5346602594567003e-09 -4.00178956638797e-09 -4.3458778242744245e-10 10.27859878540039 0.73180091381073 0.025912299752235413 2.5346602594567003e-09 -4.00178956638797e-09 -4.3458142640062647e-10 2.2216696739196777 -0.7334870100021362 -0.2089199721813202 3.0056239073116e-13 5.96353966642732e-13 -2.5126379926340703e-13 -48.91119384765625 -19.928098678588867 -75.22919464111328 8.955618858337402 -3.530399799346924 -15.856998443603516 7.034779071807861 57.5536994934082 -12.771398544311523 2.6683422138518154e-10 -1.5748899073741995e-08 2.8288997810932415e-09 5.845874895271663e-10 -2.7498298749151218e-08 4.8488093540299815e-09 2.6682944742617565e-10 -1.5748899073741995e-08 2.82891865488466e-09 -7.7309088706970215 5.474880218505859 -0.41731396317481995 2.6683102949398574e-10 -1.5748899073741995e-08 2.8288997810932415e-09 -2.9055399894714355 0.9651829600334167 -0.10290198773145676 2.6682625553497985e-10 -1.5748899073741995e-08 2.8288997810932415e-09 -10.27859878540039 0.73180091381073 -0.025912299752235413 2.668405774119975e-10 -1.5748899073741995e-08 2.8288902331752297e-09 -2.2216696739196777 -0.7334870100021362 0.2089199721813202 -0.0 0.0 -0.0 -15.18749713897705 11.113699913024902 0.8145889639854431 0.15601101517677307 22.478200912475586 2.3131797313690186 -5.603038787841797 -10.797000885009766 -34.765098571777344 -0.0 0.0 -0.0 97.70189666748047 -50.827392578125 95.93419647216797 60.531497955322266 88.80073547363281 -61.04239273071289 5.392269134521484 -3.848360061645508 21.387798309326172
0.4902456055379657 28.009099729510304 1.3427838946842865 -13.55949878692627 -28.670202255249023 23.039199829101562 5.34144926071167 3.4371697902679443 5.787569522857666 4.1670098304748535 -8.84148120880127 1.715309977531433 0.05644003674387932 11.518199920654297 6.233929634094238 5.355538845062256 -29.253101348876953 13.925398826599121 -0.0 0.0 -0.0 -0.0 0.0 -0.0 -1.5266661632790113e-13 -1.208610712595884e-13 -5.406942797138437e-13 108.0689926147461 47.0349006652832 -55.52589797973633 -27.549196243286133 -42.330997467041016 88.2139892578125 -10.81059741973877 -64.42599487304688 -17.080198287963867 2.5113404689136587e-09 -4.014510057714915e-09 -5.473638764463828e-10 4.341889514591912e-09 -6.749729664079496e-09 -8.13741685146141e-10 2.5113500168316705e-09 -4.014519827677532e-09 -5.473829722824064e-10 7.7309088706970215 5.474880218505859 0.41731396317481995 2.5113404689136587e-09 -4.014519827677532e-09 -5.473638764463828e-10 2.9055399894714355 0.9651829600334167 0.10290198773145676 2.5113500168316705e-09 -4.014510057714915e-09 -5.473702602287744e-10 10.27859878540039 0.73180091381073 0.025912299752235413 2.5113404689136587e-09 -4.014510057714915e-09 -5.473575481751425e-10 2.2216696739196777 -0.7334870100021362 -0.2089199721813202 -1.5266661632790113e-13 -1.208610712595884e-13 -5.406942797138437e-13 -48.39049530029297 -19.906801223754883 -75.24629974365234 9.047969818115234 -3.5826098918914795 -16.027799606323242 6.884950160980225 57.19459915161133 -12.593499183654785 -1.3567005296977186e-09 -5.696279448130781e-09 2.1647712511452255e-09 -2.2329798010645163e-09 -1.0481598700096129e-08 3.778139134880121e-09 -1.3567005296977186e-09 -5.696288774004188e-09 2.164790346981249e-09 -7.7309088706970215 5.474880218505859 -0.41731396317481995 -1.3567005296977186e-09 -5.696279448130781e-09 2.1647712511452255e-09 -2.9055399894714355 0.9651829600334167 -0.10290198773145676 -1.3567005296977186e-09 -5.696279448130781e-09 2.1647712511452255e-09 -10.27859878540039 0.73180091381073 -0.025912299752235413 -1.3566894274674723e-09 -5.696288774004188e-09 2.1647585946027448e-09 -2.2216696739196777 -0.7334870100021362 0.2089199721813202 -0.0 0.0 -0.0 -15.16770076751709 10.658100128173828 1.7803598642349243 0.15148307383060455 22.613698959350586 2.294250011444092 -4.765900135040283 -9.410289764404297 -34.69289779663086 -0.0 0.0 -0.0 97.23209381103516 -51.26380157470703 96.84239196777344 63.23019790649414 88.83516693115234 -63.78399658203125 5.787110328674316 -3.913519859313965 22.79309844970703
0.7327843689850756 28.203389583093195 1.940092421977511 -12.932799339294434 -27.953298568725586 23.78449821472168 4.766969203948975 2.400979995727539 5.290429592132568 4.249249458312988 -8.516200065612793 1.5416200160980225 -0.0034931120462715626 11.413900375366211 6.161109924316406 5.606079578399658 -29.408300399780273 13.865697860717773 -0.0 0.0 -0.0 -0.0 0.0 -0.0 -5.868122827934474e-13 -9.382635727389621e-13 -8.364858285203614e-13 107.81199645996094 46.87679672241211 -55.04459762573242 -27.642698287963867 -41.99169921875 87.57119750976562 -10.618997573852539 -64.15709686279297 -16.867998123168945 1.9071193513298113e-09 -3.270400394939088e-09 -6.086627313273141e-10 3.3111591246637317e-09 -5.535769620479414e-09 -9.586637039760149e-10 1.9071193513298113e-09 -3.270400394939088e-09 -6.086786075165662e-10 7.7309088706970215 5.474880218505859 0.41731396317481995 1.9071098034117995e-09 -3.270389292708842e-09 -6.086627313273141e-10 2.9055399894714355 0.9651829600334167 0.10290198773145676 1.9071304535600575e-09 -3.270400394939088e-09 -6.086690595985544e-10 10.27859878540039 0.73180091381073 0.025912299752235413 1.9071098034117995e-09 -3.270389292708842e-09 -6.086563475449225e-10 2.2216696739196777 -0.7334870100021362 -0.2089199721813202 -5.884025905400492e-13 -9.382635727389621e-13 -8.364858285203614e-13 -47.97600173950195 -19.777498245239258 -75.22879791259766 9.14645767211914 -3.6386096477508545 -16.210397720336914 6.752198219299316 56.869300842285156 -12.43529987335205 -4.132359343600456e-09 1.0885999657261891e-08 1.1452190307181809e-09 -7.045230177027406e-09 1.7555199960384016e-08 2.1513397729933104e-09 -4.132370445830702e-09 1.0885999657261891e-08 1.1452190307181809e-09 -7.7309088706970215 5.474880218505859 -0.41731396317481995 -4.132359343600456e-09 1.0885999657261891e-08 1.1452095938224716e-09 -2.9055399894714355 0.9651829600334167 -0.10290198773145676 -4.132359343600456e-09 1.0885999657261891e-08 1.1452095938224716e-09 -10.27859878540039 0.73180091381073 -0.025912299752235413 -4.132349573637839e-09 1.0885999657261891e-08 1.1452000459044598e-09 -2.2216696739196777 -0.7334870100021362 0.2089199721813202 -0.0 0.0 -0.0 -15.160696983337402 10.072600364685059 2.486449956893921 0.1436568945646286 23.36979866027832 2.290300130844116 -3.747649908065796 -7.80548095703125 -34.40229797363281 -0.0 0.0 -0.0 96.52130126953125 -52.21689987182617 97.50309753417969 57.92599868774414 88.77890014648438 -58.5099983215332 6.087449550628662 -4.040930271148682 23.78879737854004
